Coordinates
version=1
nRows=30
nColumns=19
inDegrees=yes

Units are S.I. units (second, meters, Newtons, ...)
If the header above contains a line with 'inDegrees', this indicates whether rotational values are in degrees (yes) or radians (no).

endheader
time	pelvis_obliquity	pelvis_rotation	pelvis_tilt	pelvis_to_ground_tx	pelvis_to_ground_ty	pelvis_to_ground_tz	left_hip_abduction	left_hip_rotation	left_hip_flexion	left_knee_flexion	left_ankle_flexion	left_subtalar_angle	right_hip_abduction	right_hip_rotation	right_hip_flexion	right_knee_flexion	right_ankle_flexion	right_subtalar_angle
      3.69000000	     97.03693427	     21.91488348	    -14.40578367	     -0.67848185	     -0.61521880	      0.59226454	     -4.51215627	    -22.51919829	     17.30935778	     -3.31316231	    -13.34578925	    -11.11208914	     -2.29942560	     -6.45034815	     30.64866255	    -51.99513287	    -10.80587324	    -14.13007667
      3.70000000	     97.00359773	     22.46135664	    -14.46596406	     -0.67172393	     -0.61489128	      0.59270362	     -4.33630269	    -22.64945919	     16.27529071	     -2.39061565	    -13.45760236	    -11.03760102	     -2.47840136	     -7.56329485	     32.91102797	    -53.66100402	     -9.84689202	    -14.58049966
      3.71000000	     96.94083687	     22.99664744	    -14.40656303	     -0.66501643	     -0.61466104	      0.59297825	     -4.16660499	    -22.63005955	     15.23348660	     -1.63461755	    -13.69184932	    -11.03283727	     -2.63712984	     -8.63708503	     35.06239272	    -55.11116147	     -8.63765512	    -14.99408803
      3.72000000	     96.89280974	     23.48140283	    -14.40814355	     -0.65835573	     -0.61453131	      0.59317276	     -3.93313646	    -22.78483718	     14.24124300	     -0.81671436	    -13.71865937	    -10.90255697	     -2.80907886	     -9.55510344	     37.25271985	    -56.30124346	     -8.03467525	    -15.29944485
      3.73000000	     96.85507739	     23.94200011	    -14.35795966	     -0.65169327	     -0.61450324	      0.59322854	     -3.70971775	    -22.90659347	     13.23879713	     -0.06536299	    -13.78536126	    -10.74569629	     -3.00815233	    -10.38662111	     39.35336053	    -57.24977996	     -7.35417242	    -15.67276249
      3.74000000	     96.84447012	     24.35261576	    -14.24178338	     -0.64500926	     -0.61453314	      0.59314074	     -3.54017997	    -22.94478788	     12.19972458	      0.61053804	    -13.91874899	    -10.58760022	     -3.27747421	    -11.10128080	     41.32630624	    -57.95299345	     -6.59512928	    -16.05868467
      3.75000000	     96.89073442	     24.67925831	    -14.15134027	     -0.63829684	     -0.61462746	      0.59292469	     -3.42226564	    -22.92649402	     11.18947802	      1.24795537	    -13.87805210	    -10.46260594	     -3.64633947	    -11.65087710	     43.24161097	    -58.39403726	     -6.40856230	    -16.22429131
      3.76000000	     96.90135027	     25.08645978	    -14.04123345	     -0.63144447	     -0.61486738	      0.59265352	     -3.20161639	    -23.26457133	     10.11988665	      1.96041191	    -13.92194384	    -10.20609812	     -3.98419008	    -12.17742485	     44.99597277	    -58.47428275	     -5.94580565	    -16.58692338
      3.77000000	     96.98901963	     25.36105309	    -13.89408503	     -0.62449767	     -0.61511124	      0.59222119	     -3.12417822	    -23.37463800	      8.99958853	      2.60680070	    -13.99217034	    -10.00522571	     -4.49729568	    -12.48156180	     46.57197666	    -58.27804874	     -5.60660681	    -16.86359185
      3.78000000	     97.08352232	     25.58719616	    -13.72448693	     -0.61737994	     -0.61541748	      0.59168312	     -3.06671661	    -23.47799398	      7.84138070	      3.23226487	    -14.07434286	     -9.81427241	     -5.09028910	    -12.60958288	     47.94054086	    -57.72763336	     -5.36125731	    -17.07439508
      3.79000000	     97.21472152	     25.77705016	    -13.54140385	     -0.61006139	     -0.61576529	      0.59101174	     -3.06325503	    -23.57547064	      6.65107617	      3.80863220	    -14.13792855	     -9.64126944	     -5.79210906	    -12.59759926	     49.07312036	    -56.83647081	     -5.23362053	    -17.19900736
      3.80000000	     97.34898440	     25.92268700	    -13.32475085	     -0.60249706	     -0.61615057	      0.59022124	     -3.08951782	    -23.66644576	      5.41184396	      4.34106897	    -14.23107031	     -9.47830787	     -6.58894377	    -12.38164265	     49.91781145	    -55.58080797	     -5.17218634	    -17.26177757
      3.81000000	     97.49949770	     26.03111219	    -13.08722830	     -0.59465456	     -0.61656098	      0.58928943	     -3.15802282	    -23.73208951	      4.15012140	      4.79062621	    -14.30759072	     -9.33686188	     -7.48627215	    -11.98332965	     50.46396529	    -53.99419478	     -5.18476879	    -17.24624832
      3.82000000	     97.64504859	     26.11842344	    -12.81195033	     -0.58650058	     -0.61700796	      0.58822019	     -3.25206435	    -23.80323009	      2.87195957	      5.11642680	    -14.40902610	     -9.21155271	     -8.46598643	    -11.36441500	     50.67528118	    -52.10361778	     -5.24860026	    -17.16762814
      3.83000000	     97.78461437	     26.18199766	    -12.50777283	     -0.57800281	     -0.61746498	      0.58700353	     -3.37144363	    -23.85357746	      1.59924054	      5.29712212	    -14.50357948	     -9.10816779	     -9.50974834	    -10.54802750	     50.56625221	    -49.98153897	     -5.34594459	    -17.04122557
      3.84000000	     97.91109906	     26.23540780	    -12.17024931	     -0.56914795	     -0.61795069	      0.58564264	     -3.50960800	    -23.90194597	      0.35280201	      5.28958724	    -14.59739950	     -9.02351229	    -10.59154043	     -9.52233261	     50.14651799	    -47.71394896	     -5.45542416	    -16.88790032
      3.85000000	     98.00357461	     26.28118952	    -11.80288561	     -0.55992951	     -0.61845765	      0.58415818	     -3.64510851	    -23.93064803	     -0.82052500	      5.03642296	    -14.67312717	     -8.96168094	    -11.66217375	     -8.29789498	     49.45800509	    -45.40240149	     -5.53728107	    -16.73667442
      3.86000000	     98.06010847	     26.31874274	    -11.41882876	     -0.55036149	     -0.61899334	      0.58257202	     -3.77499683	    -23.95795401	     -1.88591535	      4.50673571	    -14.74678476	     -8.91722058	    -12.67639261	     -6.91192213	     48.56488689	    -43.16824964	     -5.57444771	    -16.60478235
      3.87000000	     98.06324858	     26.34761209	    -11.04024923	     -0.54047702	     -0.61956748	      0.58093038	     -3.87397219	    -23.98056804	     -2.77433703	      3.64911474	    -14.82110743	     -8.89342452	    -13.56956375	     -5.41421606	     47.54877180	    -41.11845416	     -5.53573733	    -16.51008060
      3.88000000	     98.00938834	     26.35738697	    -10.82580603	     -0.53032943	     -0.62021367	      0.57933534	     -3.88729648	    -24.11527494	     -3.31700338	      2.48560188	    -14.87987506	     -8.89146829	    -14.30054269	     -3.83146832	     46.60104191	    -39.29476727	     -5.41261483	    -16.42487063
      3.89000000	     97.81629004	     26.34922112	    -10.44082085	     -0.51994431	     -0.62089071	      0.57775366	     -3.84212328	    -24.05481321	     -3.72506543	      0.84395701	    -14.99127203	     -8.93164229	    -14.73894239	     -2.28423160	     45.50608136	    -37.84982250	     -5.18636496	    -16.40528694
      3.90000000	     97.55016119	     26.33154075	    -10.11643286	     -0.50943306	     -0.62162566	      0.57624085	     -3.69815212	    -23.83077698	     -3.70138625	     -1.35116499	    -15.11851649	     -8.96666339	    -14.89302397	     -0.93634481	     44.50239976	    -36.81585682	     -4.75375458	    -16.47959681
      3.91000000	     97.13524694	     26.27963421	     -9.96580986	     -0.49883105	     -0.62248774	      0.57495817	     -3.35968550	    -23.65082594	     -3.19569724	     -3.91338756	    -15.25304659	     -8.99690258	    -14.73184838	      0.34504430	     43.68935404	    -36.03989510	     -4.23311951	    -16.52510624
      3.92000000	     96.59364199	     26.20066934	     -9.91769359	     -0.48821893	     -0.62344880	      0.57389934	     -2.86814632	    -23.39536932	     -2.23991447	     -6.89855690	    -15.40350431	     -9.00456088	    -14.25863901	      1.42673240	     43.01083250	    -35.51748839	     -3.62148116	    -16.55976205
      3.93000000	     95.89445285	     26.09754840	     -9.92953160	     -0.47763561	     -0.62452688	      0.57309420	     -2.20982465	    -23.07880452	     -0.89745362	    -10.23116180	    -15.58946005	     -9.00100017	    -13.46596744	      2.32903546	     42.42550602	    -35.16830589	     -2.97346956	    -16.56625661
      3.94000000	     95.04671974	     25.96768301	     -9.99453955	     -0.46712718	     -0.62572339	      0.57258056	     -1.39460771	    -22.68236224	      0.79229718	    -13.82636305	    -15.82160576	     -8.99859623	    -12.39079841	      3.06387177	     41.89739896	    -34.87479061	     -2.32655799	    -16.54466226
      3.95000000	     94.08169647	     25.82244452	    -10.13673394	     -0.45672191	     -0.62704771	      0.57238636	     -0.44718927	    -22.22571562	      2.79880928	    -17.57688473	    -15.94512397	     -8.57633249	    -11.08991601	      3.63374285	     41.42098093	    -34.54833567	     -1.25290482	    -16.37570921
      3.96000000	     93.01017521	     25.61151727	    -10.24890343	     -0.44645257	     -0.62845644	      0.57253086	      0.57099423	    -21.63115154	      4.94910838	    -21.37213284	    -16.30343742	     -8.76557719	     -9.63162269	      4.18353475	     40.86838453	    -34.08546617	     -0.89393189	    -16.30889399
      3.97000000	     91.89365112	     25.37385451	    -10.42074964	     -0.43632744	     -0.62996600	      0.57305051	      1.63462654	    -20.95827000	      7.27915154	    -25.11093109	    -16.68083202	     -8.92217879	     -8.09264340	      4.67855664	     40.27921911	    -33.41103214	     -0.48654413	    -16.22719006
      3.98000000	     90.78208929	     25.09932445	    -10.62850553	     -0.42635495	     -0.63155283	      0.57395343	      2.67529736	    -20.19120179	      9.70380479	    -28.70037492	    -17.06474615	     -9.10080033	     -6.54557478	      5.16027397	     39.60419374	    -32.48228665	     -0.11079455	    -16.11148670
